<mxfile host="65bd71144e">
    <diagram id="NZteQ1Kzc_gQBmL7olxc" name="Page-1">
        <mxGraphModel dx="730" dy="424" grid="1" gridSize="10" guides="1" tooltips="1" connect="1" arrows="1" fold="1" page="1" pageScale="1" pageWidth="850" pageHeight="1100" background="none" math="0" shadow="0">
            <root>
                <mxCell id="0"/>
                <mxCell id="1" parent="0"/>
                <mxCell id="GKjJ0w9TVUlws5NCG4qK-1" value="start" style="ellipse;whiteSpace=wrap;html=1;" parent="1" vertex="1">
                    <mxGeometry x="365" y="30" width="120" height="50" as="geometry"/>
                </mxCell>
                <mxCell id="GKjJ0w9TVUlws5NCG4qK-2" value="End" style="ellipse;whiteSpace=wrap;html=1;" parent="1" vertex="1">
                    <mxGeometry x="365" y="710" width="120" height="50" as="geometry"/>
                </mxCell>
                <mxCell id="GKjJ0w9TVUlws5NCG4qK-7" value="" style="edgeStyle=orthogonalEdgeStyle;rounded=0;orthogonalLoop=1;jettySize=auto;html=1;" parent="1" source="GKjJ0w9TVUlws5NCG4qK-3" target="GKjJ0w9TVUlws5NCG4qK-6" edge="1">
                    <mxGeometry relative="1" as="geometry"/>
                </mxCell>
                <mxCell id="GKjJ0w9TVUlws5NCG4qK-3" value="iinput date from user" style="shape=parallelogram;perimeter=parallelogramPerimeter;whiteSpace=wrap;html=1;fixedSize=1;" parent="1" vertex="1">
                    <mxGeometry x="350" y="100" width="150" height="40" as="geometry"/>
                </mxCell>
                <mxCell id="GKjJ0w9TVUlws5NCG4qK-4" value="" style="endArrow=classic;html=1;rounded=0;entryX=0.5;entryY=0;entryDx=0;entryDy=0;exitX=0.5;exitY=1;exitDx=0;exitDy=0;" parent="1" source="GKjJ0w9TVUlws5NCG4qK-1" target="GKjJ0w9TVUlws5NCG4qK-3" edge="1">
                    <mxGeometry width="50" height="50" relative="1" as="geometry">
                        <mxPoint x="400" y="270" as="sourcePoint"/>
                        <mxPoint x="450" y="220" as="targetPoint"/>
                    </mxGeometry>
                </mxCell>
                <mxCell id="GKjJ0w9TVUlws5NCG4qK-10" value="" style="edgeStyle=orthogonalEdgeStyle;rounded=0;orthogonalLoop=1;jettySize=auto;html=1;" parent="1" source="GKjJ0w9TVUlws5NCG4qK-5" target="GKjJ0w9TVUlws5NCG4qK-9" edge="1">
                    <mxGeometry relative="1" as="geometry"/>
                </mxCell>
                <mxCell id="GKjJ0w9TVUlws5NCG4qK-5" value="check month&amp;gt;0 &amp;amp;&amp;amp; month&amp;lt;=12" style="rhombus;whiteSpace=wrap;html=1;" parent="1" vertex="1">
                    <mxGeometry x="365" y="250" width="120" height="100" as="geometry"/>
                </mxCell>
                <mxCell id="GKjJ0w9TVUlws5NCG4qK-17" value="" style="edgeStyle=orthogonalEdgeStyle;rounded=0;orthogonalLoop=1;jettySize=auto;html=1;" parent="1" source="GKjJ0w9TVUlws5NCG4qK-6" target="GKjJ0w9TVUlws5NCG4qK-5" edge="1">
                    <mxGeometry relative="1" as="geometry"/>
                </mxCell>
                <mxCell id="GKjJ0w9TVUlws5NCG4qK-6" value="Validate Date" style="whiteSpace=wrap;html=1;" parent="1" vertex="1">
                    <mxGeometry x="365" y="160" width="120" height="60" as="geometry"/>
                </mxCell>
                <mxCell id="GKjJ0w9TVUlws5NCG4qK-12" value="" style="edgeStyle=orthogonalEdgeStyle;rounded=0;orthogonalLoop=1;jettySize=auto;html=1;" parent="1" source="GKjJ0w9TVUlws5NCG4qK-9" target="GKjJ0w9TVUlws5NCG4qK-11" edge="1">
                    <mxGeometry relative="1" as="geometry"/>
                </mxCell>
                <mxCell id="GKjJ0w9TVUlws5NCG4qK-9" value="check Day&amp;gt;0 &amp;amp;&amp;amp; Day&amp;lt;=31" style="rhombus;whiteSpace=wrap;html=1;" parent="1" vertex="1">
                    <mxGeometry x="365" y="370" width="120" height="100" as="geometry"/>
                </mxCell>
                <mxCell id="GKjJ0w9TVUlws5NCG4qK-15" value="" style="edgeStyle=orthogonalEdgeStyle;rounded=0;orthogonalLoop=1;jettySize=auto;html=1;" parent="1" source="GKjJ0w9TVUlws5NCG4qK-11" target="GKjJ0w9TVUlws5NCG4qK-14" edge="1">
                    <mxGeometry relative="1" as="geometry"/>
                </mxCell>
                <mxCell id="GKjJ0w9TVUlws5NCG4qK-11" value="check year&amp;gt;1800 &amp;amp;&amp;amp; Year&amp;lt;=9999" style="rhombus;whiteSpace=wrap;html=1;" parent="1" vertex="1">
                    <mxGeometry x="365" y="500" width="120" height="100" as="geometry"/>
                </mxCell>
                <mxCell id="GKjJ0w9TVUlws5NCG4qK-16" value="" style="edgeStyle=orthogonalEdgeStyle;rounded=0;orthogonalLoop=1;jettySize=auto;html=1;" parent="1" source="GKjJ0w9TVUlws5NCG4qK-14" target="GKjJ0w9TVUlws5NCG4qK-2" edge="1">
                    <mxGeometry relative="1" as="geometry"/>
                </mxCell>
                <mxCell id="GKjJ0w9TVUlws5NCG4qK-14" value="date is valid" style="shape=parallelogram;perimeter=parallelogramPerimeter;whiteSpace=wrap;html=1;fixedSize=1;" parent="1" vertex="1">
                    <mxGeometry x="365" y="640" width="120" height="40" as="geometry"/>
                </mxCell>
                <mxCell id="GKjJ0w9TVUlws5NCG4qK-18" value="" style="endArrow=classic;html=1;rounded=0;" parent="1" edge="1">
                    <mxGeometry width="50" height="50" relative="1" as="geometry">
                        <mxPoint x="490" y="300" as="sourcePoint"/>
                        <mxPoint x="600" y="640" as="targetPoint"/>
                        <Array as="points">
                            <mxPoint x="600" y="300"/>
                            <mxPoint x="600" y="570"/>
                        </Array>
                    </mxGeometry>
                </mxCell>
                <mxCell id="GKjJ0w9TVUlws5NCG4qK-21" value="" style="edgeStyle=orthogonalEdgeStyle;rounded=0;orthogonalLoop=1;jettySize=auto;html=1;entryX=1;entryY=0.5;entryDx=0;entryDy=0;" parent="1" source="GKjJ0w9TVUlws5NCG4qK-19" target="GKjJ0w9TVUlws5NCG4qK-2" edge="1">
                    <mxGeometry relative="1" as="geometry">
                        <mxPoint x="590" y="750" as="targetPoint"/>
                        <Array as="points">
                            <mxPoint x="580" y="735"/>
                        </Array>
                    </mxGeometry>
                </mxCell>
                <mxCell id="GKjJ0w9TVUlws5NCG4qK-19" value="date is Invalid" style="shape=parallelogram;perimeter=parallelogramPerimeter;whiteSpace=wrap;html=1;fixedSize=1;" parent="1" vertex="1">
                    <mxGeometry x="530" y="640" width="120" height="40" as="geometry"/>
                </mxCell>
                <mxCell id="GKjJ0w9TVUlws5NCG4qK-22" value="" style="endArrow=classic;html=1;rounded=0;" parent="1" edge="1">
                    <mxGeometry width="50" height="50" relative="1" as="geometry">
                        <mxPoint x="490" y="420" as="sourcePoint"/>
                        <mxPoint x="590" y="420" as="targetPoint"/>
                    </mxGeometry>
                </mxCell>
                <mxCell id="GKjJ0w9TVUlws5NCG4qK-23" value="" style="endArrow=classic;html=1;rounded=0;exitX=1;exitY=0.5;exitDx=0;exitDy=0;" parent="1" source="GKjJ0w9TVUlws5NCG4qK-11" edge="1">
                    <mxGeometry width="50" height="50" relative="1" as="geometry">
                        <mxPoint x="500" y="430" as="sourcePoint"/>
                        <mxPoint x="600" y="550" as="targetPoint"/>
                        <Array as="points">
                            <mxPoint x="550" y="550"/>
                        </Array>
                    </mxGeometry>
                </mxCell>
                <mxCell id="GKjJ0w9TVUlws5NCG4qK-24" value="YES" style="text;html=1;align=center;verticalAlign=middle;resizable=0;points=[];autosize=1;strokeColor=none;fillColor=none;" parent="1" vertex="1">
                    <mxGeometry x="430" y="340" width="40" height="20" as="geometry"/>
                </mxCell>
                <mxCell id="GKjJ0w9TVUlws5NCG4qK-25" value="YES" style="text;html=1;align=center;verticalAlign=middle;resizable=0;points=[];autosize=1;strokeColor=none;fillColor=none;" parent="1" vertex="1">
                    <mxGeometry x="380" y="480" width="40" height="20" as="geometry"/>
                </mxCell>
                <mxCell id="GKjJ0w9TVUlws5NCG4qK-26" value="yes" style="text;html=1;align=center;verticalAlign=middle;resizable=0;points=[];autosize=1;strokeColor=none;fillColor=none;" parent="1" vertex="1">
                    <mxGeometry x="385" y="610" width="30" height="20" as="geometry"/>
                </mxCell>
                <mxCell id="GKjJ0w9TVUlws5NCG4qK-27" value="no" style="text;html=1;align=center;verticalAlign=middle;resizable=0;points=[];autosize=1;strokeColor=none;fillColor=none;" parent="1" vertex="1">
                    <mxGeometry x="535" y="280" width="30" height="20" as="geometry"/>
                </mxCell>
                <mxCell id="GKjJ0w9TVUlws5NCG4qK-28" value="no" style="text;html=1;align=center;verticalAlign=middle;resizable=0;points=[];autosize=1;strokeColor=none;fillColor=none;" parent="1" vertex="1">
                    <mxGeometry x="535" y="400" width="30" height="20" as="geometry"/>
                </mxCell>
                <mxCell id="GKjJ0w9TVUlws5NCG4qK-29" value="no" style="text;html=1;align=center;verticalAlign=middle;resizable=0;points=[];autosize=1;strokeColor=none;fillColor=none;" parent="1" vertex="1">
                    <mxGeometry x="535" y="530" width="30" height="20" as="geometry"/>
                </mxCell>
            </root>
        </mxGraphModel>
    </diagram>
</mxfile>